<mxfile host="app.diagrams.net" modified="2023-01-24T12:28:38.450Z" agent="5.0 (Windows NT 10.0; Win64; x64) AppleWebKit/537.36 (KHTML, like Gecko) Chrome/109.0.0.0 Safari/537.36" etag="S8dI-6y--kI6qK3YD9BQ" version="20.8.10" type="github">
  <diagram name="Page-1" id="pkQ7ZUIS6B_-yRcOeoQ0">
    <mxGraphModel dx="1050" dy="590" grid="1" gridSize="10" guides="1" tooltips="1" connect="1" arrows="1" fold="1" page="1" pageScale="1" pageWidth="850" pageHeight="1100" math="0" shadow="0">
      <root>
        <mxCell id="0" />
        <mxCell id="1" parent="0" />
        <mxCell id="pZOjZObbCfK3PoOkiG7c-3" style="edgeStyle=orthogonalEdgeStyle;rounded=0;orthogonalLoop=1;jettySize=auto;html=1;exitX=0.5;exitY=1;exitDx=0;exitDy=0;" edge="1" parent="1" source="pZOjZObbCfK3PoOkiG7c-1" target="pZOjZObbCfK3PoOkiG7c-2">
          <mxGeometry relative="1" as="geometry" />
        </mxCell>
        <mxCell id="pZOjZObbCfK3PoOkiG7c-1" value="Start" style="ellipse;whiteSpace=wrap;html=1;" vertex="1" parent="1">
          <mxGeometry x="130" y="50" width="120" height="80" as="geometry" />
        </mxCell>
        <mxCell id="pZOjZObbCfK3PoOkiG7c-5" value="" style="edgeStyle=orthogonalEdgeStyle;rounded=0;orthogonalLoop=1;jettySize=auto;html=1;" edge="1" parent="1" source="pZOjZObbCfK3PoOkiG7c-2" target="pZOjZObbCfK3PoOkiG7c-4">
          <mxGeometry relative="1" as="geometry" />
        </mxCell>
        <mxCell id="pZOjZObbCfK3PoOkiG7c-2" value="Process" style="rounded=0;whiteSpace=wrap;html=1;" vertex="1" parent="1">
          <mxGeometry x="130" y="210" width="120" height="60" as="geometry" />
        </mxCell>
        <mxCell id="pZOjZObbCfK3PoOkiG7c-4" value="End" style="ellipse;whiteSpace=wrap;html=1;rounded=0;" vertex="1" parent="1">
          <mxGeometry x="130" y="340" width="120" height="80" as="geometry" />
        </mxCell>
      </root>
    </mxGraphModel>
  </diagram>
</mxfile>
